<svg width="700pt" height="700pt" version="1.1" viewBox="0 0 700 700" xmlns="http://www.w3.org/2000/svg" xmlns:xlink="http://www.w3.org/1999/xlink">
 <g>
  <path d="m507.5 525h-315c-6.9609 0-13.641-2.7656-18.562-7.6875s-7.6875-11.602-7.6875-18.562v-306.25h367.5v306.25c0 6.9609-2.7656 13.641-7.6875 18.562s-11.602 7.6875-18.562 7.6875zm-323.75-315v288.75c0 2.3203 0.92188 4.5469 2.5625 6.1875s3.8672 2.5625 6.1875 2.5625h315c2.3203 0 4.5469-0.92188 6.1875-2.5625s2.5625-3.8672 2.5625-6.1875v-288.75z"/>
  <path d="m543.46 210h-18.461v-17.5h18.461c3.4258-0.015625 6.4336-2.2656 7.4219-5.5469 0.98438-3.2773-0.28516-6.8125-3.1328-8.7148l-193.46-128.98c-2.6367-1.8164-6.1172-1.8164-8.75 0l-193.29 128.98c-2.8477 1.9023-4.1172 5.4375-3.1328 8.7148 0.98828 3.2812 3.9961 5.5312 7.4219 5.5469h18.461v17.5h-18.461c-7.2695-0.023438-14.172-3.1758-18.953-8.6445-4.7852-5.4727-6.9805-12.738-6.0312-19.941 0.94531-7.2031 4.9492-13.652 10.984-17.703l193.46-128.71c4.1406-2.7812 9.0117-4.2656 14-4.2656s9.8594 1.4844 14 4.2656l193.46 128.71c6.0352 4.0508 10.039 10.5 10.984 17.703 0.94922 7.2031-1.2461 14.469-6.0312 19.941-4.7812 5.4688-11.684 8.6211-18.953 8.6445z"/>
  <path d="m420 525h-140v-140c0-11.602 4.6094-22.73 12.812-30.938 8.207-8.2031 19.336-12.812 30.938-12.812h52.5c11.602 0 22.73 4.6094 30.938 12.812 8.2031 8.207 12.812 19.336 12.812 30.938zm-122.5-17.5h105v-122.5c0-6.9609-2.7656-13.641-7.6875-18.562s-11.602-7.6875-18.562-7.6875h-52.5c-6.9609 0-13.641 2.7656-18.562 7.6875s-7.6875 11.602-7.6875 18.562z"/>
  <path d="m210 297.5h17.5v43.75h-17.5z"/>
  <path d="m472.5 297.5h17.5v43.75h-17.5z"/>
  <path d="m210 262.5h17.5v17.5h-17.5z"/>
  <path d="m472.5 262.5h17.5v17.5h-17.5z"/>
 </g>
</svg>
