<svg width="160" height="160" viewBox="0 0 160 160" fill="none" xmlns="http://www.w3.org/2000/svg">
<g filter="url(#filter0_d_7648_885)">
<path fill-rule="evenodd" clip-rule="evenodd" d="M105.513 77.0919C102.114 79.5674 98.7861 81.7458 95.7308 83.6118C93.8956 84.7331 91.5708 84.6885 89.8099 83.4486C87.0834 81.5296 83.6827 80.4292 79.6658 80.4292C75.6489 80.4292 72.2482 81.5296 69.5217 83.4486C67.7608 84.6871 65.436 84.7331 63.6008 83.6118C60.5455 81.7472 57.2178 79.5674 53.8185 77.0919C46.3762 71.6723 40.0812 65.9264 35.1109 60.0159C30.9055 55.0147 27.6507 49.8908 25.3822 44.7112C24.561 42.8354 24.8265 40.6514 26.0714 39.0322C32.9167 30.1218 51.495 10 79.6658 10C107.837 10 126.415 30.1218 133.26 39.0322C134.505 40.6514 134.771 42.8354 133.949 44.7112C131.681 49.8908 128.426 55.0147 124.221 60.0159C119.25 65.9264 112.955 71.6709 105.513 77.0919ZM45.143 107.688C48.6826 107.211 52.1906 106.487 55.6338 105.527C56.5569 105.271 57.4758 104.996 58.3907 104.704C60.3014 104.095 61.7541 102.488 62.1366 100.495C62.3608 99.3253 62.6621 98.1984 63.0376 97.1231C63.4751 95.8721 62.9757 94.4803 61.8491 93.8039C58.3989 91.7329 54.5622 89.2504 50.6085 86.3705C42.8058 80.6873 36.1834 74.636 30.9242 68.3824C28.9405 66.0241 27.1508 63.6351 25.5564 61.2196C24.9318 60.274 23.5149 60.447 23.1256 61.5139C21.1749 66.8595 19 75.3905 19 86.8488C19 93.2502 22.5093 100.922 24.7915 105.233C25.6788 106.911 27.3489 108.018 29.2212 108.158C34.5285 108.555 39.8646 108.399 45.143 107.688ZM61.9507 113.533C61.8571 112.656 60.9946 112.091 60.1651 112.357C55.5415 113.838 50.7941 114.916 46.0095 115.57C42.8551 116.001 39.6457 116.134 36.4404 116.248C35.4183 116.284 34.7869 117.403 35.2821 118.311C37.5134 122.41 40.3954 126.292 43.2651 129.879C48.0414 135.848 53.5522 141.222 59.6973 145.729C61.4774 147.035 63.3098 148.268 65.1903 149.42C68.3764 151.373 72.1663 148.05 70.7287 144.566C67.3405 136.359 63.1062 124.389 61.9507 113.533ZM136.207 61.5113C135.818 60.4444 134.401 60.2728 133.777 61.217C132.182 63.6325 130.392 66.0229 128.409 68.3799C123.15 74.632 116.527 80.6848 108.724 86.3679C104.771 89.2478 100.934 91.7303 97.4839 93.8013C96.3572 94.4777 95.8578 95.8696 96.2953 97.1206C96.6709 98.1958 96.9721 99.3227 97.1964 100.493C97.5788 102.486 99.0315 104.094 100.942 104.702C101.857 104.993 102.776 105.268 103.699 105.525C107.142 106.484 110.65 107.208 114.19 107.685C119.467 108.396 124.804 108.552 130.112 108.155C131.984 108.015 133.653 106.907 134.541 105.23C136.824 100.922 140.333 93.2505 140.333 86.8491C140.333 75.3907 138.158 66.8597 136.207 61.5113ZM113.325 115.57C116.48 116.001 119.688 116.134 122.895 116.248C123.918 116.284 124.548 117.403 124.053 118.311C121.822 122.41 118.94 126.292 116.07 129.879C111.294 135.848 105.783 141.223 99.6377 145.729C97.8576 147.035 96.0252 148.266 94.1447 149.42C90.9586 151.372 87.1687 148.049 88.6063 144.566C91.9945 136.359 96.2288 124.389 97.3843 113.533C97.4765 112.656 98.3404 112.091 99.17 112.357C103.795 113.838 108.541 114.916 113.325 115.57Z" fill="#FFBB01"/>
</g>
<defs>
<filter id="filter0_d_7648_885" x="-4" y="0" width="168" height="168" filterUnits="userSpaceOnUse" color-interpolation-filters="sRGB">
<feFlood flood-opacity="0" result="BackgroundImageFix"/>
<feColorMatrix in="SourceAlpha" type="matrix" values="0 0 0 0 0 0 0 0 0 0 0 0 0 0 0 0 0 0 127 0" result="hardAlpha"/>
<feOffset dy="4"/>
<feGaussianBlur stdDeviation="2"/>
<feColorMatrix type="matrix" values="0 0 0 0 0 0 0 0 0 0 0 0 0 0 0 0 0 0 0.25 0"/>
<feBlend mode="normal" in2="BackgroundImageFix" result="effect1_dropShadow_7648_885"/>
<feBlend mode="normal" in="SourceGraphic" in2="effect1_dropShadow_7648_885" result="shape"/>
</filter>
</defs>
</svg>
