<svg width="27" height="32" viewBox="0 0 27 32" fill="none" xmlns="http://www.w3.org/2000/svg">
<path d="M13.3007 29.2818L14.3614 28.2212L21.2914 21.2912C23.4106 19.1719 24.6012 16.2976 24.6012 13.3005C24.6012 10.3034 23.4106 7.4291 21.2914 5.30984C19.1721 3.19059 16.2978 2 13.3007 2C10.3037 2 7.42935 3.19057 5.3101 5.30979C3.19085 7.42901 2 10.3 2 13.3C2 16.3 3.19 19.17 5.31 21.29L13.3007 29.2818Z" fill="#FFBB01" stroke="white" stroke-width="3"/>
<path d="M14.2199 14.2197C13.9761 14.4635 13.6455 14.6005 13.3007 14.6005C12.9559 14.6005 12.6253 14.4635 12.3815 14.2197C12.1377 13.9759 12.0007 13.6453 12.0007 13.3005C12.0007 12.9557 12.1377 12.6251 12.3815 12.3813C12.6253 12.1375 12.9559 12.0005 13.3007 12.0005C13.6455 12.0005 13.9761 12.1375 14.2199 12.3813C14.4637 12.6251 14.6007 12.9557 14.6007 13.3005C14.6007 13.6453 14.4637 13.9759 14.2199 14.2197Z" fill="#FFBB01" stroke="white" stroke-width="3"/>
</svg>
