<svg width="20" height="20" viewBox="0 0 20 20" fill="none" xmlns="http://www.w3.org/2000/svg">
<path d="M2.98816 2.98816C2.67559 3.30072 2.5 3.72464 2.5 4.16667V5C2.5 11.9033 8.09667 17.5 15 17.5H15.8333C16.2754 17.5 16.6993 17.3244 17.0118 17.0118C17.3244 16.6993 17.5 16.2754 17.5 15.8333V13.1008C17.5 12.9259 17.445 12.7553 17.3427 12.6134C17.2404 12.4714 17.096 12.3653 16.93 12.31L13.1858 11.0617C12.9956 10.9984 12.7888 11.0059 12.6036 11.0827C12.4184 11.1596 12.2671 11.3006 12.1775 11.48L11.2358 13.3608C9.19538 12.4389 7.5611 10.8046 6.63917 8.76417L8.52 7.8225C8.69938 7.73288 8.84042 7.58158 8.91726 7.39637C8.9941 7.21116 9.00158 7.00445 8.93833 6.81417L7.69 3.07C7.63475 2.90413 7.52874 2.75984 7.38696 2.65754C7.24519 2.55525 7.07483 2.50013 6.9 2.5H4.16667C3.72464 2.5 3.30072 2.67559 2.98816 2.98816Z" stroke="#D6D3D1" stroke-width="1.5" stroke-linecap="round" stroke-linejoin="round"/>
</svg>
