<svg width="20" height="20" viewBox="0 0 20 20" fill="none" xmlns="http://www.w3.org/2000/svg">
<path d="M14.7142 13.8808L11.1784 17.4167C11.0237 17.5715 10.8401 17.6942 10.638 17.778C10.4359 17.8618 10.2193 17.9049 10.0005 17.9049C9.78167 17.9049 9.56503 17.8618 9.36291 17.778C9.1608 17.6942 8.97717 17.5715 8.82254 17.4167L5.28588 13.8808C4.35356 12.9485 3.71866 11.7606 3.46145 10.4674C3.20424 9.17419 3.33629 7.83376 3.84088 6.61561C4.34547 5.39745 5.19996 4.35628 6.29628 3.62376C7.3926 2.89123 8.68152 2.50024 10 2.50024C11.3186 2.50024 12.6075 2.89123 13.7038 3.62376C14.8001 4.35628 15.6546 5.39745 16.1592 6.61561C16.6638 7.83376 16.7958 9.17419 16.5386 10.4674C16.2814 11.7606 15.6465 12.9485 14.7142 13.8808V13.8808Z" stroke="#D6D3D1" stroke-width="1.5" stroke-linecap="round" stroke-linejoin="round"/>
<path d="M11.7678 10.9345C12.2366 10.4656 12.5 9.82973 12.5 9.16669C12.5 8.50365 12.2366 7.86776 11.7678 7.39892C11.2989 6.93008 10.663 6.66669 10 6.66669C9.33696 6.66669 8.70107 6.93008 8.23223 7.39892C7.76339 7.86776 7.5 8.50365 7.5 9.16669C7.5 9.82973 7.76339 10.4656 8.23223 10.9345C8.70107 11.4033 9.33696 11.6667 10 11.6667C10.663 11.6667 11.2989 11.4033 11.7678 10.9345Z" stroke="#D6D3D1" stroke-width="1.5" stroke-linecap="round" stroke-linejoin="round"/>
</svg>
